<svg id="Capa_1" enable-background="new 0 0 512 512" height="512" viewBox="0 0 512 512" width="512" xmlns="http://www.w3.org/2000/svg" xmlns:xlink="http://www.w3.org/1999/xlink"><linearGradient id="SVGID_1_" gradientUnits="userSpaceOnUse" x1="256.118" x2="256.118" y1="496" y2="91.096"><stop offset="0" stop-color="#addcff"/><stop offset=".5028" stop-color="#eaf6ff"/><stop offset="1" stop-color="#eaf6ff"/></linearGradient><linearGradient id="SVGID_2_" gradientUnits="userSpaceOnUse" x1="256" x2="256" y1="406" y2="16"><stop offset="0" stop-color="#5558ff"/><stop offset="1" stop-color="#00c0ff"/></linearGradient><g><g><g><path d="m367.123 279.921-38.672-38.921 38.173-38.452c7.911-7.251 11.221-18.179 8.673-28.271-2.402-10.269-10.078-18.574-19.746-21.606l-180-60c-11.456-3.854-23.744-.266-30.205 6.812-8.408 7.749-11.396 19.951-7.676 31.069l59.912 179.722c3.018 9.683 11.338 17.52 21.27 20.01 9.44 2.313 21.438-.523 28.213-8.145l38.935-38.703 38.35 38.086c11.604 12.96 32.621 12.026 42.451.864 12.377-11.696 12.02-31.417.322-42.465zm-21.123 186.079c-8.262 0-15-6.724-15-15v-60c0-8.291-6.709-15-15-15h-120c-8.291 0-15 6.709-15 15v60c0 8.276-6.738 15-15 15-8.291 0-15 6.709-15 15s6.709 15 15 15h180c8.291 0 15-6.709 15-15s-6.709-15-15-15z" fill="url(#SVGID_1_)"/></g></g><g><g><path d="m467 16h-422c-24.901 0-45 20.1-45 45v300c0 24.899 20.099 45 45 45h422c24.9 0 45-20.101 45-45v-300c0-24.9-20.1-45-45-45zm-110.501 274.499c6 5.7 6 15.3 0 21-5.396 6-15.6 6.002-20.999 0l-49.5-49.2-49.501 49.2c-3.682 4.095-9.834 5.268-14.099 4.2-4.801-1.199-9-5.1-10.499-9.9l-60-180c-1.802-5.4-.601-11.4 3.6-15.3 3.9-4.199 9.899-5.4 15.299-3.6l180 60c4.801 1.5 8.701 5.7 9.9 10.802 1.201 4.799-.3 10.199-4.2 13.799l-49.199 49.5z" fill="url(#SVGID_2_)"/></g></g></g></svg>